# xmcd CD database file generated by Grip 3.2.0
# 
# Track frame offsets:
#       183
#       15130
#       31240
#       45360
#       58103
#       72983
#       83255
#       96130
#       108775
#       121248
#       135635
#       150510
#       161708
#       177388
#       190745
#       204410
#       216183
#       230403
#       244260
#       255563
# 
# Disc length: 3552 seconds
# 
# Revision: 5
# Processed by: cddbd v1.5.2PL0 Copyright (c) Steve Scherf et al.
# Submitted via: Grip 3.2.0
# 
DISCID=f90dde14
DTITLE=Muddy Waters - The Collection
DYEAR=1987
DGENRE=Blues
TTITLE0=Baby Please Don't Go
TTITLE1=Got My Mojo Workin'
TTITLE2=Rollin' Stone
TTITLE3=Mean Mistreater
TTITLE4=Rock Me
TTITLE5=Mean Red Spider
TTITLE6=Forty Days and Forty Nights
TTITLE7=The Stuff You Gotta Watch
TTITLE8=All Aboard
TTITLE9=Lonesome Room Blues
TTITLE10=Please Have Mercy
TTITLE11=She's All Right
TTITLE12=Iodine in My Coffee
TTITLE13=Rollin' and Tumblin'
TTITLE14=I'm Ready
TTITLE15=You Gonna Miss Me
TTITLE16=Sad Sad Sad
TTITLE17=Oh Yeah
TTITLE18=I Can't Call Her Sugar
TTITLE19=I Feel So Good
EXTD=
EXTT0=
EXTT1=
EXTT2=
EXTT3=
EXTT4=
EXTT5=
EXTT6=
EXTT7=
EXTT8=
EXTT9=
EXTT10=
EXTT11=
EXTT12=
EXTT13=
EXTT14=
EXTT15=
EXTT16=
EXTT17=
EXTT18=
EXTT19=
PLAYORDER=
